<svg width="520" height="340" viewBox="0 0 520 340" fill="none" xmlns="http://www.w3.org/2000/svg">
  <rect x="90" y="32" width="220" height="256" rx="28" fill="#F9FBFF"/>
  <rect x="118" y="72" width="164" height="18" rx="9" fill="#D6E1FF"/>
  <rect x="118" y="106" width="130" height="12" rx="6" fill="#E9EEF9"/>
  <rect x="118" y="128" width="150" height="12" rx="6" fill="#E9EEF9"/>
  <rect x="118" y="150" width="112" height="12" rx="6" fill="#E9EEF9"/>
  <rect x="118" y="192" width="96" height="54" rx="16" fill="#3155D8"/>
  <circle cx="362" cy="90" r="42" fill="#F0C5A3"/>
  <path d="M316 152C316 123 339 100 368 100H378C424 100 462 138 462 184V282H338C326 282 316 272 316 260V152Z" fill="#FFFFFF"/>
  <path d="M300 236L426 236" stroke="#DDE5F7" stroke-width="18" stroke-linecap="round"/>
  <path d="M300 268L408 268" stroke="#EDF2FF" stroke-width="14" stroke-linecap="round"/>
</svg>
